<svg xmlns="http://www.w3.org/2000/svg" viewBox="0 0 512 540" role="img" aria-label="NANOFIX logo">
  <defs>
    <linearGradient id="drop" x1="0" y1="0" x2="0" y2="1">
      <stop offset="0%" stop-color="#37B7E8"/>
      <stop offset="100%" stop-color="#075B95"/>
    </linearGradient>
    <filter id="soft" x="-20%" y="-20%" width="140%" height="140%">
      <feDropShadow dx="0" dy="8" stdDeviation="7" flood-color="#001B35" flood-opacity="0.28"/>
    </filter>
  </defs>
  <rect width="512" height="540" fill="none"/>
  <g filter="url(#soft)">
    <path d="M256 28 404 142v130c0 103-61 180-148 218C169 452 108 375 108 272V142L256 28Z" fill="#073E70" stroke="#FFF200" stroke-width="18"/>
    <path d="M256 56c-48 74-90 122-90 201 0 72 42 130 90 130s90-58 90-130c0-79-42-127-90-201Z" fill="url(#drop)" stroke="#0A81BD" stroke-width="5"/>
    <path d="M167 148c-42 20-72 49-78 80 47-34 100-48 158-45" fill="none" stroke="#FFF200" stroke-width="15" stroke-linecap="round"/>
    <path d="M349 160c48 8 83 30 101 68-30-13-63-19-99-16" fill="none" stroke="#FF8A00" stroke-width="16" stroke-linecap="round"/>
    <path d="M98 338c34 17 73 21 116 11" fill="none" stroke="#FF8A00" stroke-width="15" stroke-linecap="round"/>
    <text x="256" y="282" text-anchor="middle" font-size="126" font-family="Georgia, Times New Roman, serif" font-weight="900" font-style="italic" fill="#FFF200">NF</text>
  </g>
  <text x="256" y="522" text-anchor="middle" font-size="70" font-family="Georgia, Times New Roman, serif" font-weight="900" fill="#073E70" stroke="#FFF200" stroke-width="6" paint-order="stroke">NANOFIX</text>
</svg>
